<svg width="166" height="44" viewBox="0 0 166 44" fill="none" xmlns="http://www.w3.org/2000/svg">
<rect x="1" y="1" width="164" height="42" rx="7" stroke="#28A745" stroke-width="2"/>
<path d="M22.4004 25.2598C22.7402 25.2598 22.9863 25.1807 23.1387 25.0225C23.291 24.8584 23.3672 24.5918 23.3672 24.2227C23.3672 24.0527 23.3525 23.8945 23.3232 23.748C23.2939 23.6016 23.25 23.458 23.1914 23.3174C22.9629 22.7607 22.5498 22.4766 21.9521 22.4648C21.6182 22.459 21.3135 22.585 21.0381 22.8428C20.7686 23.1006 20.5283 23.5049 20.3174 24.0557C21.249 24.8584 21.9434 25.2598 22.4004 25.2598ZM25.2217 24.1084C25.2217 24.542 25.1689 24.9404 25.0635 25.3037C24.958 25.667 24.7998 25.9922 24.5889 26.2793C24.4717 26.4316 24.3398 26.5664 24.1934 26.6836C24.0527 26.8008 23.8945 26.8975 23.7188 26.9736C23.543 27.0498 23.3525 27.1055 23.1475 27.1406C22.9424 27.1816 22.7227 27.2021 22.4883 27.2021C21.8555 27.2021 21.1055 26.9355 20.2383 26.4023C19.9629 26.2324 19.667 26.0684 19.3506 25.9102C19.2686 25.8633 19.1777 25.8311 19.0781 25.8135C18.9844 25.7959 18.8818 25.7871 18.7705 25.7871C18.4072 25.793 18.1201 26.1387 17.9092 26.8242C17.6982 27.5098 17.5957 28.5586 17.6016 29.9707C17.6016 31.1133 17.6426 32.1533 17.7246 33.0908L17.7422 33.2842H17.5488H15.9668H15.7998L15.791 33.1172C15.7207 32.0039 15.6885 30.9434 15.6943 29.9355C15.7119 27.7793 15.9492 26.25 16.4062 25.3477C16.6348 24.8965 16.9102 24.5361 17.2324 24.2666C17.5547 23.9971 17.918 23.8213 18.3223 23.7393C19.2129 21.5537 20.417 20.458 21.9346 20.4521C22.9365 20.4463 23.7363 20.8066 24.334 21.5332C24.9258 22.2539 25.2217 23.1123 25.2217 24.1084ZM31.2686 26.0508C31.2744 26.1562 31.2744 26.2646 31.2686 26.376C31.2627 26.4873 31.251 26.5898 31.2334 26.6836C31.2158 26.7773 31.1807 26.8535 31.1279 26.9121C31.0752 26.9707 31.0049 27 30.917 27H30.7324C29.5488 27 28.6553 26.6631 28.0518 25.9893C27.4482 25.3096 27.1465 24.3164 27.1465 23.0098V14.5371V14.3613H27.3223H28.8516H29.0273V14.5371V22.9922C29.0273 23.6895 29.168 24.2051 29.4492 24.5391C29.7305 24.8672 30.167 25.0312 30.7588 25.0312H30.917C30.9697 25.0312 31.0195 25.043 31.0664 25.0664C31.1074 25.0898 31.1396 25.125 31.1631 25.1719C31.1865 25.2246 31.207 25.2715 31.2246 25.3125C31.2363 25.3535 31.2451 25.415 31.251 25.4971C31.2568 25.5791 31.2598 25.6406 31.2598 25.6816C31.2656 25.6992 31.2686 25.7666 31.2686 25.8838V26.0508ZM31.4707 27H30.8027C30.5742 27 30.4043 26.915 30.293 26.7451C30.1758 26.5693 30.1172 26.3379 30.1172 26.0508V25.8838C30.1172 25.626 30.1758 25.4209 30.293 25.2686C30.4102 25.1104 30.5801 25.0312 30.8027 25.0312H31.4707C31.9219 25.0312 32.2998 25.0078 32.6045 24.9609C32.915 24.9141 33.1436 24.8525 33.29 24.7764C33.7295 24.5186 33.9492 23.9561 33.9492 23.0889C33.9492 22.4033 33.8438 21.6416 33.6328 20.8037L33.5889 20.6367L33.7559 20.5928L35.1973 20.2324L35.3555 20.1885L35.4082 20.3467C35.6953 21.2783 35.8389 22.1836 35.8389 23.0625C35.8389 24.5566 35.4053 25.6318 34.5381 26.2881C33.9111 26.7627 32.8887 27 31.4707 27ZM32.376 17.5605L33.6504 16.2861L33.7207 16.2158L33.7822 16.2861L35.0742 17.5693L35.1357 17.6396L35.0742 17.7012L33.791 18.9844L33.7295 19.0459L33.6592 18.9844L32.376 17.6924L32.3057 17.6309L32.376 17.5605ZM49.2773 27C46.9336 27 45.1582 26.6309 43.9512 25.8926C42.75 25.1543 42.1494 24.041 42.1494 22.5527C42.1494 21.7383 42.3135 20.9619 42.6416 20.2236L42.7207 20.0654L42.8789 20.1357L44.2588 20.7334L44.417 20.8037L44.3555 20.9619C44.168 21.4365 44.0742 21.8877 44.0742 22.3154C44.0742 24.126 45.7939 25.0312 49.2334 25.0312C49.9834 25.0312 50.666 25.0078 51.2812 24.9609C51.9023 24.9082 52.4414 24.835 52.8984 24.7412C53.3555 24.6475 53.7393 24.5361 54.0498 24.4072C54.3604 24.2725 54.5947 24.1172 54.7529 23.9414C54.835 23.8594 54.8965 23.7393 54.9375 23.5811C54.9844 23.4229 55.0078 23.2266 55.0078 22.9922C55.0078 22.9277 55.0078 22.8662 55.0078 22.8076C55.0078 22.749 55.0049 22.6963 54.999 22.6494C54.999 22.5967 54.999 22.5498 54.999 22.5088L54.9463 21.7881L54.9375 21.6211L55.1045 21.6035L56.5459 21.4277L56.7305 21.4102L56.748 21.5947L56.8887 23.4844C56.9238 23.9414 57.0557 24.3193 57.2842 24.6182C57.5068 24.8936 57.873 25.0312 58.3828 25.0312H58.4971C58.5557 25.0312 58.6055 25.043 58.6465 25.0664C58.6875 25.0898 58.7197 25.1279 58.7432 25.1807C58.7725 25.2275 58.793 25.2715 58.8047 25.3125C58.8223 25.3535 58.834 25.415 58.8398 25.4971C58.8457 25.5791 58.8486 25.6436 58.8486 25.6904C58.8486 25.7314 58.8486 25.7959 58.8486 25.8838V26.0508C58.8486 26.0625 58.8486 26.0801 58.8486 26.1035C58.8486 26.2441 58.8457 26.3525 58.8398 26.4287C58.8398 26.5049 58.8281 26.5957 58.8047 26.7012C58.7871 26.8066 58.752 26.8828 58.6992 26.9297C58.6465 26.9766 58.5791 27 58.4971 27H58.3828C57.1641 27 56.2705 26.5195 55.7021 25.5586C54.624 26.5195 52.4941 27 49.3125 27H49.2773ZM49.8311 18.6504L51.1055 17.376L51.1758 17.3057L51.2373 17.376L52.5293 18.6592L52.5908 18.7295L52.5293 18.791L51.2461 20.0742L51.1846 20.1357L51.1143 20.0742L49.8311 18.7822L49.7607 18.7207L49.8311 18.6504ZM46.9658 18.6504L48.249 17.376L48.3105 17.3057L48.3809 17.376L49.6641 18.6592L49.7344 18.7295L49.6641 18.791L48.3896 20.0742L48.3193 20.1357L48.2578 20.0742L46.9658 18.7822L46.9043 18.7207L46.9658 18.6504ZM65.168 26.0508C65.168 26.0625 65.168 26.0801 65.168 26.1035C65.168 26.2441 65.165 26.3525 65.1592 26.4287C65.1533 26.5049 65.1416 26.5957 65.124 26.7012C65.1064 26.8008 65.0713 26.877 65.0186 26.9297C64.9658 26.9766 64.8984 27 64.8164 27H64.7285C63.6094 27 62.8037 26.6309 62.3115 25.8926C61.6787 26.6309 60.6709 27 59.2881 27H58.374C58.1455 27 57.9756 26.915 57.8643 26.7451C57.7529 26.5693 57.6973 26.3379 57.6973 26.0508V25.8838C57.6973 25.626 57.7559 25.4209 57.873 25.2686C57.9844 25.1104 58.1514 25.0312 58.374 25.0312H59.2441C60.498 25.0312 61.1895 24.6914 61.3184 24.0117C61.3535 23.8184 61.3711 23.5869 61.3711 23.3174C61.3711 23.0303 61.3623 22.7578 61.3447 22.5L61.3008 21.7793L61.2832 21.6123L61.4502 21.5947L62.9004 21.4189L63.085 21.4014L63.0938 21.5859L63.2344 23.6162C63.2578 23.9443 63.3281 24.2139 63.4453 24.4248C63.5625 24.6299 63.7266 24.7822 63.9375 24.8818C64.1484 24.9814 64.418 25.0312 64.7461 25.0312H64.8164C64.8984 25.0312 64.9658 25.0547 65.0186 25.1016C65.0713 25.1484 65.1064 25.2246 65.124 25.3301C65.1416 25.4355 65.1533 25.5264 65.1592 25.6025C65.165 25.6729 65.168 25.7783 65.168 25.9189C65.168 25.9365 65.168 25.9512 65.168 25.9629V26.0508ZM59.7979 29.7158L61.0723 28.4414L61.1426 28.3711L61.2041 28.4414L62.4961 29.7246L62.5576 29.7949L62.4961 29.8564L61.2129 31.1396L61.1514 31.2012L61.0811 31.1396L59.7979 29.8477L59.7275 29.7861L59.7979 29.7158ZM65.3613 27H64.6934C64.4648 27 64.2949 26.915 64.1836 26.7451C64.0664 26.5693 64.0078 26.3379 64.0078 26.0508V25.8838C64.0078 25.626 64.0664 25.4209 64.1836 25.2686C64.3008 25.1104 64.4707 25.0312 64.6934 25.0312H65.3613C65.8125 25.0312 66.1904 25.0078 66.4951 24.9609C66.8057 24.9141 67.0342 24.8525 67.1807 24.7764C67.6201 24.5186 67.8398 23.9561 67.8398 23.0889C67.8398 22.4033 67.7344 21.6416 67.5234 20.8037L67.4795 20.6367L67.6465 20.5928L69.0879 20.2324L69.2461 20.1885L69.2988 20.3467C69.5859 21.2783 69.7295 22.1836 69.7295 23.0625C69.7295 24.5566 69.2959 25.6318 68.4287 26.2881C67.8018 26.7627 66.7793 27 65.3613 27ZM65.915 15.3369L67.1631 14.0889L67.2334 14.0186L67.2949 14.0889L68.5605 15.3457L68.6221 15.416L68.5605 15.4775L67.3037 16.7256L67.2422 16.7959L67.1719 16.7256L65.915 15.4688L65.8535 15.4072L65.915 15.3369ZM67.3652 17.7012L68.6133 16.4443L68.6836 16.3828L68.7451 16.4443L70.0107 17.71L70.0723 17.7715L70.0107 17.8418L68.7539 19.0898L68.6924 19.1514L68.6221 19.0898L67.3652 17.833L67.2949 17.7627L67.3652 17.7012ZM64.5088 17.7012L65.7568 16.4443L65.8184 16.3828L65.8887 16.4443L67.1455 17.71L67.2158 17.7715L67.1455 17.8418L65.8975 19.0898L65.8271 19.1514L65.7656 19.0898L64.5088 17.833L64.4385 17.7627L64.5088 17.7012ZM80.1926 13.32H81.5066V31.338H80.1926V13.32ZM91.6494 24.7939C92.376 24.9463 93.0703 25.0225 93.7324 25.0225C95.7832 25.0225 96.8086 24.5508 96.8086 23.6074C96.8086 22.4473 95.6191 21.1201 93.2402 19.626L93.0908 19.5293L93.1875 19.3799L94.0752 18.0439L94.1631 17.9033L94.3037 17.9912C97.2627 19.7549 98.7422 21.6182 98.7422 23.5811C98.7422 24.7119 98.3262 25.5615 97.4941 26.1299C96.6621 26.6924 95.4463 26.9766 93.8467 26.9824C92.9736 26.9824 92.2178 26.9121 91.5791 26.7715L91.4385 26.7363V26.5957V24.9697V24.75L91.6494 24.7939ZM104.824 24.9258C104.684 23.1738 104.177 22.2979 103.304 22.2979C102.823 22.2979 102.478 22.6113 102.267 23.2383C102.22 23.3848 102.182 23.5283 102.152 23.6689C102.129 23.8096 102.117 23.9443 102.117 24.0732C102.117 24.4248 102.237 24.6855 102.478 24.8555C102.724 25.0195 103.122 25.1016 103.673 25.1016C104.042 25.0957 104.426 25.0371 104.824 24.9258ZM103.664 27.0176C102.562 27.0176 101.722 26.7803 101.142 26.3057C100.567 25.8311 100.28 25.1309 100.28 24.2051C100.28 23.4668 100.438 22.7695 100.755 22.1133C101.335 20.8945 102.22 20.2852 103.409 20.2852C104.687 20.2852 105.598 20.9941 106.143 22.4121C106.506 23.3555 106.685 24.416 106.679 25.5938C106.667 27.2812 106.14 28.6025 105.097 29.5576C104.054 30.5127 102.513 31.0957 100.474 31.3066L100.324 31.3242L100.289 31.1748L99.9111 29.6807L99.8672 29.4785L100.069 29.4609C102.606 29.2031 104.153 28.3564 104.71 26.9209C104.522 26.9443 104.361 26.9619 104.227 26.9736C104.098 26.9854 103.986 26.9941 103.893 27C103.799 27.0117 103.723 27.0176 103.664 27.0176ZM113.209 22.0781C113.713 23.2207 113.965 24.3223 113.965 25.3828C113.965 27.1289 113.435 28.4971 112.374 29.4873C111.313 30.4775 109.743 31.084 107.663 31.3066L107.505 31.3242L107.47 31.1748L107.092 29.6807L107.048 29.4785L107.25 29.4609C108.879 29.2969 110.089 28.8838 110.88 28.2217C111.677 27.5654 112.072 26.6543 112.066 25.4883C112.066 24.6152 111.844 23.7012 111.398 22.7461L111.319 22.5703L111.495 22.5088L112.998 21.9902L113.147 21.9287L113.209 22.0781ZM119.994 24.9258C119.854 23.1738 119.347 22.2979 118.474 22.2979C117.993 22.2979 117.647 22.6113 117.437 23.2383C117.39 23.3848 117.352 23.5283 117.322 23.6689C117.299 23.8096 117.287 23.9443 117.287 24.0732C117.287 24.4248 117.407 24.6855 117.647 24.8555C117.894 25.0195 118.292 25.1016 118.843 25.1016C119.212 25.0957 119.596 25.0371 119.994 24.9258ZM118.834 27.0176C117.732 27.0176 116.892 26.7803 116.312 26.3057C115.737 25.8311 115.45 25.1309 115.45 24.2051C115.45 23.4668 115.608 22.7695 115.925 22.1133C116.505 20.8945 117.39 20.2852 118.579 20.2852C119.856 20.2852 120.768 20.9941 121.312 22.4121C121.676 23.3555 121.854 24.416 121.849 25.5938C121.837 27.2812 121.31 28.6025 120.267 29.5576C119.224 30.5127 117.683 31.0957 115.644 31.3066L115.494 31.3242L115.459 31.1748L115.081 29.6807L115.037 29.4785L115.239 29.4609C117.776 29.2031 119.323 28.3564 119.88 26.9209C119.692 26.9443 119.531 26.9619 119.396 26.9736C119.268 26.9854 119.156 26.9941 119.062 27C118.969 27.0117 118.893 27.0176 118.834 27.0176Z" fill="#28A745"/>
<path d="M139 12C136.38 12 134.25 14.13 134.25 16.75C134.25 19.32 136.26 21.4 138.88 21.49C138.96 21.48 139.04 21.48 139.1 21.49C139.12 21.49 139.13 21.49 139.15 21.49C139.16 21.49 139.16 21.49 139.17 21.49C141.73 21.4 143.74 19.32 143.75 16.75C143.75 14.13 141.62 12 139 12Z" fill="#28A745"/>
<path d="M144.08 24.15C141.29 22.29 136.74 22.29 133.93 24.15C132.66 25 131.96 26.15 131.96 27.38C131.96 28.61 132.66 29.75 133.92 30.59C135.32 31.53 137.16 32 139 32C140.84 32 142.68 31.53 144.08 30.59C145.34 29.74 146.04 28.6 146.04 27.36C146.03 26.13 145.34 24.99 144.08 24.15Z" fill="#28A745"/>
</svg>
