<svg width="133" height="25" viewBox="0 0 133 25" fill="none" xmlns="http://www.w3.org/2000/svg">
<path d="M34.2154 15.952L34.3434 14.64H40.8234C40.8874 14.64 40.9834 14.704 40.9834 15.344C40.9834 15.952 40.8874 16 40.8234 16H39.1594C39.3194 16.16 39.3994 16.448 39.3994 16.768C39.3994 18.608 37.7034 19.904 35.0634 19.904H33.8314C31.1274 19.904 29.6394 18.256 29.6394 15.472V12.464H30.9674V15.44C30.9674 17.456 31.9594 18.544 33.8634 18.544H35.0634C37.0634 18.544 38.0874 17.856 38.0874 16.8C38.0874 16.208 37.8154 15.952 37.1754 15.952H34.2154ZM41.3241 14.64C42.0761 14.64 42.6201 14.176 42.6201 13.456V5.648H43.9321V13.376C43.9321 14.288 44.4921 14.64 45.1801 14.64H45.5801C45.6441 14.64 45.7401 14.704 45.7401 15.328C45.7401 15.952 45.6441 16 45.5801 16H45.1321C44.2041 16 43.5321 15.664 43.2761 15.04C42.9081 15.664 42.2361 16 41.3241 16H40.8281C40.7641 16 40.6681 15.952 40.6681 15.344C40.6681 14.704 40.7641 14.64 40.8281 14.64H41.3241ZM46.2181 14.64C47.1781 14.64 47.7061 14.144 47.7061 13.36V10.864H49.0341V13.312C49.0341 13.984 49.2581 14.304 49.7221 14.464C51.7381 10.976 53.3221 9.632 55.0981 9.632C56.8421 9.632 58.1221 10.928 58.1221 12.8C58.1221 14.672 56.8261 16 54.7621 16H50.4901C49.3381 16 48.6341 15.68 48.3141 15.056C47.9301 15.696 47.2101 16 46.2181 16H45.5781C45.5141 16 45.4181 15.952 45.4181 15.344C45.4181 14.704 45.5141 14.64 45.5781 14.64H46.2181ZM54.7621 14.64C56.0581 14.64 56.7941 13.92 56.7941 12.8C56.7941 11.712 56.0901 10.944 55.0021 10.944C53.7701 10.944 52.5861 12.096 51.0181 14.64H54.7621ZM60.8463 16V5.648H62.1743V16H60.8463ZM70.0299 12.288C70.0299 13.312 70.4779 13.856 71.5499 13.856C72.7019 13.856 73.3739 13.392 73.3739 12.704V10.384H71.8219C70.7019 10.384 70.0299 11.072 70.0299 12.288ZM74.7019 13.04C74.7019 14.176 75.1179 14.64 75.8699 14.64H76.2539C76.3339 14.64 76.4139 14.704 76.4139 15.344C76.4139 15.952 76.3339 16 76.2539 16H75.8699C74.7499 16 73.9819 15.552 73.7259 14.464C73.2619 14.992 72.3499 15.216 71.4699 15.216C69.6779 15.216 68.7019 14.24 68.7019 12.32C68.7019 10.528 69.9499 9.072 71.8219 9.072H73.3739V7.968H74.7019V13.04ZM77.386 14.64C78.986 14.64 79.994 14.416 81.05 13.824L83.466 12.416C83.13 11.28 82.586 10.944 81.45 10.944H77.738L77.866 9.584H81.658C83.562 9.584 84.394 10.4 85.002 12.864L83.818 13.584C84.138 14.432 84.474 14.64 85.386 14.64H86.41C86.474 14.64 86.57 14.72 86.57 15.344C86.57 15.984 86.474 16 86.41 16H85.338C84.01 16 83.37 15.616 82.762 14.24L81.658 14.912C80.362 15.712 79.21 16 77.338 16H76.25C76.186 16 76.09 15.952 76.09 15.344C76.09 14.704 76.186 14.64 76.25 14.64H77.386ZM88.9023 14.64C88.2463 14.176 87.8143 13.28 87.8143 12.48C87.8143 10.72 89.1263 9.536 90.8383 9.536C92.5343 9.536 93.7823 10.72 93.7823 12.448C93.7823 13.232 93.3343 14.096 92.5663 14.64H95.1743C95.2383 14.64 95.3343 14.704 95.3343 15.344C95.3343 15.952 95.2383 16 95.1743 16H93.0943C91.7343 16 91.2223 15.952 90.8223 15.744C90.4223 15.952 89.7343 16 88.4383 16H86.4062C86.3422 16 86.2462 15.952 86.2462 15.344C86.2462 14.704 86.3422 14.64 86.4062 14.64H88.9023ZM90.7903 10.848C89.7983 10.848 89.0783 11.472 89.0783 12.528C89.0783 13.408 89.6383 14.096 90.7743 14.608C91.9103 14.096 92.5023 13.376 92.5023 12.528C92.5023 11.472 91.7983 10.848 90.7903 10.848ZM91.6703 7.68H90.0063V6.352H91.6703V7.68ZM95.8119 14.64C96.7719 14.64 97.2999 14.144 97.2999 13.36V10.864H98.6279V13.312C98.6279 13.984 98.8519 14.304 99.3159 14.464C101.332 10.976 102.916 9.632 104.692 9.632C106.436 9.632 107.716 10.928 107.716 12.8C107.716 14.672 106.42 16 104.356 16H100.084C98.9319 16 98.2279 15.68 97.9079 15.056C97.5239 15.696 96.8039 16 95.8119 16H95.1719C95.1079 16 95.0119 15.952 95.0119 15.344C95.0119 14.704 95.1079 14.64 95.1719 14.64H95.8119ZM104.356 14.64C105.652 14.64 106.388 13.92 106.388 12.8C106.388 11.712 105.684 10.944 104.596 10.944C103.364 10.944 102.18 12.096 100.612 14.64H104.356Z" fill="#28A745"/>
<path d="M130.36 9.04667L126.52 6.36C125.473 5.62667 123.867 5.66667 122.86 6.44667L119.52 9.05333C118.853 9.57333 118.327 10.64 118.327 11.48V16.08C118.327 17.78 119.707 19.1667 121.407 19.1667H128.593C130.293 19.1667 131.673 17.7867 131.673 16.0867V11.5667C131.673 10.6667 131.093 9.56 130.36 9.04667ZM125.5 16.5C125.5 16.7733 125.273 17 125 17C124.727 17 124.5 16.7733 124.5 16.5V14.5C124.5 14.2267 124.727 14 125 14C125.273 14 125.5 14.2267 125.5 14.5V16.5Z" fill="#28A745"/>
</svg>
